# xmcd
#
# Track frame offsets:
#	150
#	15040
#	33902
#
# Disc length: 647 seconds
#
# Revision: 0
# Processed by: cddbd v1.4PL0 Copyright (c) Steve Scherf et al.
# Submitted via: EasyCDDAExtractor 4.6.9.1
#
DISCID=0f028503
DTITLE=Sikaduo - Kourin, kourin
DYEAR=1994
DGENRE=Country
TTITLE0=Kourin, kourin - RadioEdit
TTITLE1=Kourin, kourin - MexSikamix
TTITLE2=Kourin, kourin - Tuppisuumix
EXTD=
EXTT0=
EXTT1=
EXTT2=
PLAYORDER=
